<svg width="48" height="48" viewBox="0 0 48 48" fill="none" xmlns="http://www.w3.org/2000/svg">
<g id="Baby">
<path id="Vector" d="M17.25 26.25C16.805 26.25 16.37 26.118 16 25.8708C15.63 25.6236 15.3416 25.2722 15.1713 24.861C15.001 24.4499 14.9564 23.9975 15.0432 23.561C15.1301 23.1246 15.3443 22.7237 15.659 22.409C15.9737 22.0943 16.3746 21.88 16.8111 21.7932C17.2475 21.7064 17.6999 21.751 18.111 21.9213C18.5222 22.0916 18.8736 22.38 19.1208 22.75C19.368 23.12 19.5 23.555 19.5 24C19.5 24.5967 19.263 25.169 18.841 25.591C18.419 26.0129 17.8467 26.25 17.25 26.25ZM30.75 21.75C30.305 21.75 29.87 21.882 29.5 22.1292C29.13 22.3764 28.8416 22.7278 28.6713 23.139C28.501 23.5501 28.4564 24.0025 28.5432 24.439C28.6301 24.8754 28.8444 25.2763 29.159 25.591C29.4737 25.9057 29.8746 26.1199 30.3111 26.2068C30.7475 26.2936 31.1999 26.249 31.611 26.0787C32.0222 25.9084 32.3736 25.62 32.6208 25.25C32.868 24.88 33 24.445 33 24C33 23.4033 32.763 22.831 32.341 22.409C31.919 21.9871 31.3467 21.75 30.75 21.75ZM28.4494 30.2306C27.1134 31.0598 25.5724 31.4991 24 31.4991C22.4277 31.4991 20.8866 31.0598 19.5506 30.2306C19.214 30.0183 18.8068 29.9484 18.4186 30.0363C18.0304 30.1242 17.693 30.3627 17.4806 30.6994C17.2683 31.036 17.1984 31.4433 17.2863 31.8315C17.3742 32.2197 17.6127 32.557 17.9494 32.7694C19.7647 33.901 21.8609 34.5009 24 34.5009C26.1391 34.5009 28.2354 33.901 30.0506 32.7694C30.3873 32.557 30.6258 32.2197 30.7137 31.8315C30.8016 31.4433 30.7317 31.036 30.5194 30.6994C30.307 30.3627 29.9697 30.1242 29.5815 30.0363C29.1933 29.9484 28.786 30.0183 28.4494 30.2306ZM43.5 24C43.5 27.8567 42.3564 31.6269 40.2137 34.8336C38.071 38.0404 35.0255 40.5397 31.4623 42.0156C27.8992 43.4916 23.9784 43.8777 20.1957 43.1253C16.4131 42.3729 12.9386 40.5157 10.2114 37.7886C7.4843 35.0615 5.62711 31.5869 4.8747 27.8043C4.12228 24.0216 4.50845 20.1008 5.98436 16.5377C7.46027 12.9745 9.95963 9.92903 13.1664 7.78634C16.3731 5.64365 20.1433 4.5 24 4.5C29.1701 4.50546 34.1268 6.56167 37.7826 10.2174C41.4383 13.8732 43.4945 18.83 43.5 24ZM40.5 24C40.4948 19.7525 38.8538 15.6701 35.9177 12.6007C32.9817 9.5313 28.9763 7.71066 24.7331 7.51687C22.56 10.5712 22.5 13.4775 22.5 13.5C22.5 13.8978 22.658 14.2794 22.9393 14.5607C23.2207 14.842 23.6022 15 24 15C24.3978 15 24.7794 14.842 25.0607 14.5607C25.342 14.2794 25.5 13.8978 25.5 13.5C25.5 13.1022 25.658 12.7206 25.9393 12.4393C26.2207 12.158 26.6022 12 27 12C27.3978 12 27.7794 12.158 28.0607 12.4393C28.342 12.7206 28.5 13.1022 28.5 13.5C28.5 14.6935 28.0259 15.8381 27.182 16.682C26.3381 17.5259 25.1935 18 24 18C22.8065 18 21.6619 17.5259 20.818 16.682C19.9741 15.8381 19.5 14.6935 19.5 13.5C19.5 13.3631 19.5244 10.8187 21.0863 7.75687C17.9969 8.31113 15.1298 9.73503 12.8212 11.8615C10.5127 13.9879 8.85851 16.7287 8.05286 19.7622C7.2472 22.7957 7.32346 25.9961 8.2727 28.9877C9.22194 31.9794 11.0048 34.6383 13.412 36.6524C15.8192 38.6664 18.7509 39.9521 21.8632 40.3586C24.9754 40.7651 28.139 40.2755 30.9827 38.9472C33.8265 37.6189 36.2324 35.5071 37.9181 32.8596C39.6039 30.2121 40.4995 27.1387 40.5 24Z" fill="#001662"/>
</g>
</svg>
