<svg width="48" height="48" viewBox="0 0 48 48" fill="none" xmlns="http://www.w3.org/2000/svg">
<g id="Scissors">
<path id="Vector" d="M29.5741 21.2119C29.4627 21.0492 29.3844 20.8661 29.3437 20.6731C29.3031 20.4801 29.3009 20.281 29.3373 20.0872C29.3737 19.8933 29.448 19.7086 29.5558 19.5435C29.6637 19.3784 29.8031 19.2362 29.966 19.125L42.6523 10.4437C42.9809 10.2404 43.3752 10.1718 43.7532 10.2521C44.1311 10.3324 44.4635 10.5554 44.6811 10.8748C44.8987 11.1941 44.9846 11.5851 44.921 11.9662C44.8574 12.3473 44.6492 12.6892 44.3398 12.9206L31.6516 21.6019C31.403 21.7733 31.108 21.8649 30.806 21.8644C30.5632 21.8634 30.3243 21.8036 30.1097 21.6899C29.8951 21.5763 29.7113 21.4122 29.5741 21.2119ZM44.7373 37.1662C44.5125 37.4944 44.1665 37.7199 43.7755 37.793C43.3845 37.8661 42.9805 37.781 42.6523 37.5562L25.4998 25.8187L17.5291 31.2712C18.1373 32.8156 18.1551 34.5299 17.5792 36.0866C17.0033 37.6432 15.874 38.9331 14.4071 39.7098C12.9403 40.4865 11.2387 40.6955 9.62744 40.2969C8.01623 39.8982 6.60837 38.9199 5.67286 37.5489C4.73735 36.1779 4.33979 34.5102 4.55614 32.8646C4.77249 31.219 5.58757 29.7107 6.84565 28.6281C8.10374 27.5454 9.71662 26.9643 11.3761 26.9956C13.0356 27.027 14.6254 27.6687 15.8416 28.7981L22.8429 24L15.8323 19.2019C14.6201 20.3255 13.0366 20.9632 11.384 20.9934C9.73145 21.0235 8.1257 20.4439 6.87338 19.3652C5.62106 18.2866 4.80991 16.7844 4.59484 15.1457C4.37976 13.5069 4.77583 11.8463 5.70741 10.481C6.63899 9.11575 8.0408 8.14143 9.64516 7.74412C11.2495 7.34682 12.944 7.55436 14.4051 8.32713C15.8661 9.09989 16.9913 10.3837 17.5659 11.9335C18.1404 13.4832 18.124 15.1903 17.5198 16.7287L44.3323 35.0794C44.4962 35.1895 44.6368 35.331 44.7459 35.4956C44.8551 35.6602 44.9306 35.8448 44.9683 36.0387C45.0059 36.2326 45.0049 36.432 44.9652 36.6255C44.9256 36.819 44.8481 37.0028 44.7373 37.1662ZM14.9998 33.75C15 32.8824 14.6993 32.0416 14.149 31.3708C13.5988 30.7 12.833 30.2408 11.9821 30.0714C11.1312 29.902 10.2479 30.0328 9.48266 30.4416C8.71744 30.8505 8.11764 31.512 7.78548 32.3135C7.45332 33.115 7.40935 34.0068 7.66105 34.8371C7.91276 35.6674 8.44457 36.3847 9.16586 36.8668C9.88716 37.349 10.7533 37.5661 11.6167 37.4812C12.4802 37.3963 13.2874 37.0146 13.901 36.4012C14.2505 36.054 14.5276 35.6409 14.7162 35.1858C14.9048 34.7307 15.0012 34.2426 14.9998 33.75ZM13.901 16.8994C14.4256 16.375 14.7828 15.7068 14.9276 14.9793C15.0724 14.2519 14.9982 13.4978 14.7144 12.8125C14.4306 12.1272 13.95 11.5415 13.3333 11.1294C12.7166 10.7173 11.9915 10.4973 11.2498 10.4973C10.508 10.4973 9.78297 10.7173 9.16626 11.1294C8.54956 11.5415 8.06891 12.1272 7.78511 12.8125C7.50132 13.4978 7.42712 14.2519 7.57191 14.9793C7.71669 15.7068 8.07396 16.375 8.59852 16.8994C8.94482 17.2508 9.35755 17.53 9.8127 17.7205C10.2679 17.911 10.7564 18.0091 11.2498 18.0091C11.7432 18.0091 12.2317 17.911 12.6868 17.7205C13.142 17.53 13.5547 17.2508 13.901 16.8994Z" fill="#001662"/>
</g>
</svg>
