<svg width="48" height="48" viewBox="0 0 48 48" fill="none" xmlns="http://www.w3.org/2000/svg">
<g id="Bed">
<path id="Vector" d="M39 13.5H4.5V9C4.5 8.60217 4.34196 8.22064 4.06066 7.93934C3.77936 7.65803 3.39782 7.5 3 7.5C2.60218 7.5 2.22064 7.65803 1.93934 7.93934C1.65804 8.22064 1.5 8.60217 1.5 9V39C1.5 39.3978 1.65804 39.7794 1.93934 40.0607C2.22064 40.342 2.60218 40.5 3 40.5C3.39782 40.5 3.77936 40.342 4.06066 40.0607C4.34196 39.7794 4.5 39.3978 4.5 39V33H43.5V39C43.5 39.3978 43.658 39.7794 43.9393 40.0607C44.2206 40.342 44.6022 40.5 45 40.5C45.3978 40.5 45.7794 40.342 46.0607 40.0607C46.342 39.7794 46.5 39.3978 46.5 39V21C46.5 19.0109 45.7098 17.1032 44.3033 15.6967C42.8968 14.2902 40.9891 13.5 39 13.5ZM4.5 16.5H18V30H4.5V16.5ZM21 30V16.5H39C40.1935 16.5 41.3381 16.9741 42.182 17.818C43.0259 18.6619 43.5 19.8065 43.5 21V30H21Z" fill="#001662"/>
</g>
</svg>
