<svg width="48" height="48" viewBox="0 0 48 48" fill="none" xmlns="http://www.w3.org/2000/svg">
<g id="ShirtFolded">
<path id="Vector" d="M37.5 9.00002H33.6206L31.0613 6.43877C30.7812 6.16101 30.4038 6.00358 30.0094 6.00002H18C17.803 5.99986 17.6078 6.03853 17.4257 6.11381C17.2436 6.18909 17.0782 6.29951 16.9387 6.43877L14.3794 9.00002H10.5C9.70435 9.00002 8.94129 9.31609 8.37868 9.8787C7.81607 10.4413 7.5 11.2044 7.5 12V40.5C7.5 41.2957 7.81607 42.0587 8.37868 42.6213C8.94129 43.1839 9.70435 43.5 10.5 43.5H37.5C38.2956 43.5 39.0587 43.1839 39.6213 42.6213C40.1839 42.0587 40.5 41.2957 40.5 40.5V12C40.5 11.2044 40.1839 10.4413 39.6213 9.8787C39.0587 9.31609 38.2956 9.00002 37.5 9.00002ZM30.2325 9.85502L31.5 11.1206V21L25.9819 16.23L30.2325 9.85502ZM16.5 11.1206L17.7675 9.85502L22.0181 16.23L16.5 21V11.1206ZM22.5 40.5H10.5V12H13.5V21C13.4965 21.5709 13.6575 22.1307 13.9637 22.6125C14.2699 23.0943 14.7085 23.4777 15.2269 23.7169C15.6255 23.9029 16.0601 23.9995 16.5 24C17.1999 23.9988 17.8769 23.7512 18.4125 23.3006C18.4202 23.2954 18.4272 23.2891 18.4331 23.2819L22.5 19.7775V40.5ZM20.8125 9.00002H27.2063L24 13.7963L20.8125 9.00002ZM37.5 40.5H25.5V19.7775L29.5594 23.2838C29.5653 23.291 29.5723 23.2973 29.58 23.3025C30.1178 23.754 30.7978 24.001 31.5 24C31.9429 23.9989 32.3801 23.9003 32.7806 23.7113C33.2967 23.4714 33.7331 23.0884 34.0379 22.6078C34.3427 22.1272 34.5031 21.5691 34.5 21V12H37.5V40.5Z" fill="#001662"/>
</g>
</svg>
