<svg width="48" height="48" viewBox="0 0 48 48" fill="none" xmlns="http://www.w3.org/2000/svg">
<g id="Lamp">
<path id="Vector" d="M46.3779 27.9094L37.3779 6.90937C37.2624 6.6396 37.0702 6.40965 36.8252 6.24801C36.5803 6.08637 36.2933 6.00014 35.9998 6H11.9998C11.7063 6.00014 11.4193 6.08637 11.1743 6.24801C10.9294 6.40965 10.7372 6.6396 10.6217 6.90937L1.62166 27.9094C1.52396 28.1375 1.48436 28.3862 1.50643 28.6334C1.5285 28.8806 1.61154 29.1184 1.74811 29.3256C1.88468 29.5327 2.07051 29.7028 2.28896 29.8205C2.50741 29.9382 2.75165 29.9999 2.99979 30H22.4998V39H17.9998C17.602 39 17.2204 39.158 16.9391 39.4393C16.6578 39.7206 16.4998 40.1022 16.4998 40.5C16.4998 40.8978 16.6578 41.2794 16.9391 41.5607C17.2204 41.842 17.602 42 17.9998 42H29.9998C30.3976 42 30.7791 41.842 31.0604 41.5607C31.3418 41.2794 31.4998 40.8978 31.4998 40.5C31.4998 40.1022 31.3418 39.7206 31.0604 39.4393C30.7791 39.158 30.3976 39 29.9998 39H25.4998V30H35.9998V36C35.9998 36.3978 36.1578 36.7794 36.4391 37.0607C36.7204 37.342 37.102 37.5 37.4998 37.5C37.8976 37.5 38.2791 37.342 38.5604 37.0607C38.8418 36.7794 38.9998 36.3978 38.9998 36V30H44.9998C45.2479 29.9999 45.4922 29.9382 45.7106 29.8205C45.9291 29.7028 46.1149 29.5327 46.2515 29.3256C46.388 29.1184 46.4711 28.8806 46.4931 28.6334C46.5152 28.3862 46.4756 28.1375 46.3779 27.9094ZM5.27416 27L12.9898 9H35.0098L42.7254 27H5.27416Z" fill="#001662"/>
</g>
</svg>
