<svg width="48" height="48" viewBox="0 0 48 48" fill="none" xmlns="http://www.w3.org/2000/svg">
<g id="HighHeel" clip-path="url(#clip0_219_1719)">
<path id="Vector" d="M43.3125 30.7856L33.75 28.6312L13.0613 7.93874C12.918 7.79551 12.7471 7.68279 12.5591 7.60738C12.371 7.53198 12.1696 7.49545 11.9671 7.50001C11.7645 7.50456 11.565 7.55011 11.3805 7.63389C11.196 7.71767 11.0305 7.83796 10.8937 7.98749C6.77062 12.495 4.5 18.1875 4.5 24V37.5C4.5 38.2956 4.81607 39.0587 5.37868 39.6213C5.94129 40.1839 6.70435 40.5 7.5 40.5H13.5C14.2956 40.5 15.0587 40.1839 15.6213 39.6213C16.1839 39.0587 16.5 38.2956 16.5 37.5V28.3237C16.9669 28.5956 17.4262 28.8862 17.8762 29.1937C21.2812 31.5306 23.925 34.8159 25.4794 38.6419C25.704 39.1941 26.0889 39.6663 26.5846 39.9975C27.0803 40.3288 27.6639 40.5038 28.26 40.5H45C45.7957 40.5 46.5587 40.1839 47.1213 39.6213C47.6839 39.0587 48 38.2956 48 37.5V36.6131C48.0034 35.252 47.5399 33.931 46.6868 32.8704C45.8337 31.8098 44.6427 31.074 43.3125 30.7856ZM13.5 37.5H7.5V25.5544C9.5551 25.6996 11.5772 26.1495 13.5 26.8894V37.5ZM45 37.5H28.2525C26.4772 33.1372 23.4607 29.3912 19.5769 26.7262C16.0227 24.2692 11.8665 22.8263 7.55438 22.5525C7.8926 18.4022 9.47166 14.4496 12.0862 11.2087L31.9387 31.0612C32.1397 31.2614 32.3932 31.4006 32.67 31.4625L42.6525 33.7125C43.3182 33.8541 43.9148 34.2205 44.3423 34.75C44.7697 35.2796 45.002 35.9401 45 36.6206V37.5Z" fill="#001662"/>
</g>
<defs>
<clipPath id="clip0_219_1719">
<rect width="48" height="48" fill="white"/>
</clipPath>
</defs>
</svg>
