<svg width="48" height="48" viewBox="0 0 48 48" fill="none" xmlns="http://www.w3.org/2000/svg">
<g id="Armchair">
<path id="Vector" d="M40.5002 16.65V13.5C40.5002 11.5109 39.71 9.60324 38.3035 8.19671C36.897 6.79019 34.9893 6.00002 33.0002 6.00002H15.0002C13.0111 6.00002 11.1034 6.79019 9.69689 8.19671C8.29037 9.60324 7.50019 11.5109 7.50019 13.5V16.65C5.80476 16.9943 4.28048 17.9141 3.18563 19.2536C2.09077 20.5931 1.49268 22.27 1.49268 24C1.49268 25.73 2.09077 27.4069 3.18563 28.7464C4.28048 30.0859 5.80476 31.0057 7.50019 31.35V37.5C7.50019 38.2957 7.81626 39.0587 8.37887 39.6213C8.94148 40.1839 9.70454 40.5 10.5002 40.5H37.5002C38.2958 40.5 39.0589 40.1839 39.6215 39.6213C40.1841 39.0587 40.5002 38.2957 40.5002 37.5V31.35C42.1956 31.0057 43.7199 30.0859 44.8148 28.7464C45.9096 27.4069 46.5077 25.73 46.5077 24C46.5077 22.27 45.9096 20.5931 44.8148 19.2536C43.7199 17.9141 42.1956 16.9943 40.5002 16.65ZM15.0002 9.00002H33.0002C34.1937 9.00002 35.3383 9.47412 36.1822 10.318C37.0261 11.1619 37.5002 12.3065 37.5002 13.5V16.65C35.8073 16.9981 34.2861 17.9192 33.1932 19.2581C32.1002 20.5969 31.5023 22.2717 31.5002 24H16.5002C16.4981 22.2717 15.9002 20.5969 14.8072 19.2581C13.7142 17.9192 12.1931 16.9981 10.5002 16.65V13.5C10.5002 12.3065 10.9743 11.1619 11.8182 10.318C12.6621 9.47412 13.8067 9.00002 15.0002 9.00002ZM39.0733 28.5H39.0002C38.6024 28.5 38.2208 28.658 37.9395 28.9394C37.6582 29.2207 37.5002 29.6022 37.5002 30V37.5H10.5002V30C10.5002 29.6022 10.3422 29.2207 10.0609 28.9394C9.77955 28.658 9.39802 28.5 9.00019 28.5H8.92707C8.04031 28.4856 7.17758 28.2095 6.44724 27.7063C5.7169 27.2032 5.15152 26.4955 4.82211 25.672C4.4927 24.8486 4.41396 23.9462 4.59576 23.0781C4.77756 22.2101 5.21181 21.4151 5.84396 20.7931C6.47611 20.171 7.27798 19.7497 8.14884 19.5819C9.0197 19.4141 9.92072 19.5074 10.7387 19.85C11.5568 20.1926 12.2553 20.7694 12.7466 21.5077C13.2379 22.2461 13.5001 23.1131 13.5002 24V31.5C13.5002 31.8978 13.6582 32.2794 13.9395 32.5607C14.2208 32.842 14.6024 33 15.0002 33C15.398 33 15.7795 32.842 16.0609 32.5607C16.3422 32.2794 16.5002 31.8978 16.5002 31.5V27H31.5002V31.5C31.5002 31.8978 31.6582 32.2794 31.9395 32.5607C32.2208 32.842 32.6024 33 33.0002 33C33.398 33 33.7795 32.842 34.0609 32.5607C34.3422 32.2794 34.5002 31.8978 34.5002 31.5V24C34.5003 23.1131 34.7625 22.2461 35.2538 21.5077C35.7451 20.7694 36.4436 20.1926 37.2617 19.85C38.0797 19.5074 38.9807 19.4141 39.8515 19.5819C40.7224 19.7497 41.5243 20.171 42.1564 20.7931C42.7886 21.4151 43.2228 22.2101 43.4046 23.0781C43.5864 23.9462 43.5077 24.8486 43.1783 25.672C42.8489 26.4955 42.2835 27.2032 41.5531 27.7063C40.8228 28.2095 39.9601 28.4856 39.0733 28.5Z" fill="#001662"/>
</g>
</svg>
