<svg width="48" height="48" viewBox="0 0 48 48" fill="none" xmlns="http://www.w3.org/2000/svg">
<g id="SketchLogo">
<path id="Vector" d="M46.125 18.5119L35.625 6.51187C35.4846 6.35153 35.3117 6.22294 35.1177 6.13468C34.9237 6.04641 34.7132 6.0005 34.5 6H13.5C13.2869 6.0005 13.0764 6.04641 12.8824 6.13468C12.6884 6.22294 12.5154 6.35153 12.375 6.51187L1.87504 18.5119C1.63008 18.7915 1.49772 19.1522 1.50361 19.5239C1.5095 19.8957 1.65322 20.252 1.90691 20.5237L22.9069 43.0237C23.0473 43.1742 23.2171 43.2942 23.4058 43.3762C23.5945 43.4582 23.798 43.5006 24.0038 43.5006C24.2095 43.5006 24.4131 43.4582 24.6018 43.3762C24.7905 43.2942 24.9603 43.1742 25.1007 43.0237L46.1007 20.5237C46.3533 20.251 46.4957 19.8942 46.5002 19.5225C46.5047 19.1508 46.371 18.7906 46.125 18.5119ZM41.6944 18H33.75L27 9H33.8194L41.6944 18ZM13.9838 21L19.6332 35.1244L6.45191 21H13.9838ZM30.7838 21L24 37.9612L17.2163 21H30.7838ZM18 18L24 9.99937L30 18H18ZM34.0163 21H41.5482L28.3669 35.1244L34.0163 21ZM14.1807 9H21L14.25 18H6.30566L14.1807 9Z" fill="#001662"/>
</g>
</svg>
