<svg width="168" height="30" viewBox="0 0 168 30" fill="none" xmlns="http://www.w3.org/2000/svg">
<g id="Group 209" clip-path="url(#clip0_186_844)">
<path id="Vector" d="M160.216 23.6457C158.743 23.6457 157.431 23.3153 156.28 22.6544C155.147 21.9936 154.25 21.0779 153.589 19.9074C152.947 18.7368 152.626 17.4057 152.626 15.9141C152.626 14.4415 152.947 13.1387 153.589 12.0059C154.25 10.8542 155.147 9.95737 156.28 9.31544C157.431 8.65463 158.743 8.32422 160.216 8.32422C161.689 8.32422 162.991 8.65463 164.124 9.31544C165.276 9.95737 166.173 10.8542 166.815 12.0059C167.457 13.1387 167.778 14.4415 167.778 15.9141C167.778 17.4057 167.457 18.7368 166.815 19.9074C166.173 21.0779 165.276 21.9936 164.124 22.6544C162.991 23.3153 161.689 23.6457 160.216 23.6457ZM160.216 22.2296C161.387 22.2296 162.425 21.9559 163.331 21.4083C164.257 20.8608 164.974 20.115 165.484 19.171C166.013 18.227 166.277 17.1414 166.277 15.9141C166.277 14.7247 166.013 13.6674 165.484 12.7422C164.974 11.7982 164.257 11.0619 163.331 10.5332C162.425 10.0046 161.387 9.74026 160.216 9.74026C159.027 9.74026 157.969 10.0046 157.044 10.5332C156.138 11.0619 155.42 11.7982 154.892 12.7422C154.382 13.6674 154.127 14.7247 154.127 15.9141C154.127 17.1414 154.382 18.227 154.892 19.171C155.42 20.115 156.138 20.8608 157.044 21.4083C157.969 21.9559 159.027 22.2296 160.216 22.2296Z" fill="black"/>
<path id="Vector_2" d="M147.58 23.3623V8.63557H148.996V23.3623H147.58ZM148.288 5.5486C147.872 5.5486 147.551 5.43534 147.325 5.20875C147.098 4.9822 146.985 4.67068 146.985 4.2742C146.985 3.89657 147.098 3.59449 147.325 3.36792C147.551 3.12248 147.872 2.99976 148.288 2.99976C148.703 2.99976 149.024 3.11304 149.251 3.3396C149.477 3.56617 149.59 3.87768 149.59 4.2742C149.59 4.65179 149.477 4.96331 149.251 5.20875C149.024 5.43534 148.703 5.5486 148.288 5.5486Z" fill="black"/>
<path id="Vector_3" d="M141.646 23.6461C141.136 23.6461 140.739 23.495 140.456 23.1929C140.192 22.8908 140.06 22.4566 140.06 21.8902C140.06 21.3804 140.201 20.965 140.484 20.6441C140.787 20.3042 141.174 20.1343 141.646 20.1343C142.156 20.1343 142.543 20.2948 142.807 20.6157C143.09 20.9178 143.231 21.3426 143.231 21.8902C143.231 22.4188 143.08 22.8436 142.779 23.1646C142.495 23.4855 142.118 23.6461 141.646 23.6461Z" fill="black"/>
<path id="Vector_4" d="M114.319 23.3617V8.49341H117.264V11.6653L116.726 12.0052C116.877 11.5143 117.113 11.0423 117.434 10.5892C117.774 10.136 118.18 9.73953 118.652 9.39967C119.143 9.04097 119.662 8.75775 120.21 8.55008C120.776 8.34238 121.352 8.23853 121.937 8.23853C122.787 8.23853 123.533 8.38015 124.174 8.66334C124.816 8.94656 125.345 9.37138 125.76 9.93778C126.176 10.5042 126.478 11.2122 126.667 12.0618L126.214 11.9485L126.412 11.4671C126.62 11.0329 126.903 10.6269 127.261 10.2493C127.639 9.85282 128.064 9.50353 128.536 9.20145C129.008 8.89934 129.508 8.66334 130.037 8.49341C130.566 8.32349 131.085 8.23853 131.594 8.23853C132.709 8.23853 133.624 8.46512 134.341 8.91823C135.078 9.37138 135.626 10.0605 135.984 10.9856C136.362 11.9108 136.551 13.0625 136.551 14.4407V23.3617H133.605V14.6107C133.605 13.7611 133.492 13.0719 133.266 12.5433C133.058 11.9957 132.737 11.5898 132.303 11.3255C131.868 11.0612 131.311 10.929 130.631 10.929C130.103 10.929 129.603 11.0234 129.131 11.2122C128.677 11.3821 128.281 11.6276 127.941 11.9485C127.602 12.2695 127.337 12.6471 127.148 13.0814C126.959 13.4967 126.865 13.9593 126.865 14.4691V23.3617H123.92V14.554C123.92 13.7799 123.806 13.1286 123.58 12.5999C123.353 12.0524 123.023 11.637 122.589 11.3538C122.154 11.0706 121.626 10.929 121.003 10.929C120.474 10.929 119.983 11.0234 119.53 11.2122C119.077 11.3821 118.68 11.6276 118.34 11.9485C118.001 12.2506 117.736 12.6188 117.547 13.053C117.359 13.4684 117.264 13.9216 117.264 14.4125V23.3617H114.319Z" fill="black"/>
<path id="Vector_5" d="M102.175 23.6457C100.948 23.6457 99.8241 23.3058 98.8048 22.6261C97.8041 21.9464 97.0015 21.0213 96.3974 19.8507C95.7933 18.6801 95.4911 17.3585 95.4911 15.8858C95.4911 14.3942 95.7933 13.0727 96.3974 11.9209C97.0204 10.7504 97.8511 9.83465 98.8896 9.17384C99.947 8.51302 101.127 8.18262 102.43 8.18262C103.204 8.18262 103.912 8.29588 104.554 8.52247C105.196 8.74902 105.753 9.06999 106.225 9.48536C106.716 9.88184 107.112 10.3444 107.414 10.8731C107.735 11.4017 107.933 11.9681 108.009 12.5723L107.357 12.3457V8.49414H110.303V23.3625H107.357V19.8224L108.037 19.6241C107.924 20.1339 107.688 20.6342 107.329 21.1251C106.989 21.5971 106.546 22.0219 105.998 22.3996C105.47 22.7772 104.875 23.0792 104.214 23.3058C103.572 23.5324 102.892 23.6457 102.175 23.6457ZM102.94 20.9552C103.827 20.9552 104.61 20.7381 105.29 20.3038C105.97 19.8696 106.499 19.2748 106.876 18.5197C107.273 17.7455 107.471 16.8676 107.471 15.8858C107.471 14.9229 107.273 14.0638 106.876 13.3087C106.499 12.5534 105.97 11.9587 105.29 11.5244C104.61 11.0902 103.827 10.8731 102.94 10.8731C102.071 10.8731 101.297 11.0902 100.617 11.5244C99.9563 11.9587 99.4278 12.5534 99.0311 13.3087C98.6537 14.0638 98.4648 14.9229 98.4648 15.8858C98.4648 16.8676 98.6537 17.7455 99.0311 18.5197C99.4278 19.2748 99.9563 19.8696 100.617 20.3038C101.297 20.7381 102.071 20.9552 102.94 20.9552Z" fill="black"/>
<path id="Vector_6" d="M84.707 23.6457C83.3474 23.6457 82.1296 23.3153 81.0533 22.6545C79.9963 21.9748 79.1559 21.0591 78.533 19.9074C77.91 18.7369 77.5985 17.4058 77.5985 15.9142C77.5985 14.4227 77.9004 13.101 78.5048 11.9493C79.1278 10.7787 79.9678 9.86304 81.0252 9.20222C82.0826 8.52252 83.2815 8.18267 84.6218 8.18267C85.3581 8.18267 86.0663 8.30541 86.7459 8.55085C87.4444 8.77741 88.0674 9.09837 88.6152 9.51374C89.1626 9.91022 89.5874 10.3539 89.8896 10.8448C90.2104 11.3168 90.3711 11.7983 90.3711 12.2892L89.5215 12.3458V2.40527H92.4385V23.3625H89.5215V19.8224H90.0878C90.0878 20.2756 89.9367 20.7287 89.6348 21.1819C89.3326 21.6161 88.9267 22.022 88.417 22.3996C87.9259 22.7773 87.35 23.0793 86.6893 23.3059C86.0474 23.5324 85.3867 23.6457 84.707 23.6457ZM85.1033 21.1252C85.9907 21.1252 86.7744 20.8986 87.4541 20.4455C88.1337 19.9924 88.6622 19.3788 89.04 18.6047C89.4363 17.8117 89.6348 16.9149 89.6348 15.9142C89.6348 14.9136 89.4363 14.0262 89.04 13.2521C88.6622 12.4591 88.1337 11.836 87.4541 11.3829C86.7744 10.9298 85.9907 10.7032 85.1033 10.7032C84.2159 10.7032 83.4326 10.9298 82.7526 11.3829C82.073 11.836 81.5348 12.4591 81.1385 13.2521C80.7607 14.0262 80.5722 14.9136 80.5722 15.9142C80.5722 16.9149 80.7607 17.8117 81.1385 18.6047C81.5348 19.3788 82.073 19.9924 82.7526 20.4455C83.4326 20.8986 84.2159 21.1252 85.1033 21.1252Z" fill="black"/>
<path id="Vector_7" d="M66.3041 23.6457C65.0767 23.6457 63.9533 23.3058 62.9337 22.6261C61.933 21.9464 61.1307 21.0213 60.5267 19.8507C59.9222 18.6801 59.6204 17.3585 59.6204 15.8858C59.6204 14.3942 59.9222 13.0727 60.5267 11.9209C61.1496 10.7504 61.9804 9.83465 63.0185 9.17384C64.0759 8.51302 65.2559 8.18262 66.5589 8.18262C67.333 8.18262 68.0407 8.29588 68.683 8.52247C69.3248 8.74902 69.8818 9.06999 70.3537 9.48536C70.8448 9.88184 71.2411 10.3444 71.5433 10.8731C71.8641 11.4017 72.0626 11.9681 72.1378 12.5723L71.4867 12.3457V8.49414H74.4318V23.3625H71.4867V19.8224L72.1663 19.6241C72.053 20.1339 71.817 20.6342 71.4581 21.1251C71.1185 21.5971 70.6748 22.0219 70.127 22.3996C69.5985 22.7772 69.0037 23.0792 68.343 23.3058C67.7011 23.5324 67.0215 23.6457 66.3041 23.6457ZM67.0685 20.9552C67.9559 20.9552 68.7396 20.7381 69.4193 20.3038C70.0989 19.8696 70.6274 19.2748 71.0052 18.5197C71.4015 17.7455 71.6 16.8676 71.6 15.8858C71.6 14.9229 71.4015 14.0638 71.0052 13.3087C70.6274 12.5534 70.0989 11.9587 69.4193 11.5244C68.7396 11.0902 67.9559 10.8731 67.0685 10.8731C66.2 10.8731 65.4259 11.0902 64.7463 11.5244C64.0855 11.9587 63.5567 12.5534 63.1604 13.3087C62.7826 14.0638 62.5941 14.9229 62.5941 15.8858C62.5941 16.8676 62.7826 17.7455 63.1604 18.5197C63.5567 19.2748 64.0855 19.8696 64.7463 20.3038C65.4259 20.7381 66.2 20.9552 67.0685 20.9552Z" fill="black"/>
<path id="Vector_8" d="M53.7515 26.4773L46.2463 16.6501L48.767 14.9791L56.187 24.7214L53.7515 26.4773ZM47.4644 23.6452C46.067 23.6452 44.7737 23.3904 43.5844 22.8806C42.4137 22.3708 41.3848 21.6628 40.4974 20.7565C39.6289 19.8314 38.9493 18.7552 38.4581 17.528C37.9863 16.2819 37.7504 14.9225 37.7504 13.4498C37.7504 11.9771 37.9863 10.6272 38.4581 9.39998C38.9493 8.15387 39.6289 7.07769 40.4974 6.17143C41.3848 5.24628 42.4137 4.52884 43.5844 4.01906C44.7737 3.50928 46.067 3.25439 47.4644 3.25439C48.8615 3.25439 50.1452 3.50928 51.3159 4.01906C52.5052 4.52884 53.5344 5.24628 54.403 6.17143C55.2904 7.09658 55.97 8.18217 56.4418 9.42828C56.933 10.6555 57.1781 11.996 57.1781 13.4498C57.1781 14.9036 56.933 16.2536 56.4418 17.4996C55.97 18.7269 55.2904 19.8031 54.403 20.7282C53.5344 21.6534 52.5052 22.3708 51.3159 22.8806C50.1452 23.3904 48.8615 23.6452 47.4644 23.6452ZM47.4644 20.6716C48.427 20.6716 49.3052 20.4922 50.0981 20.1335C50.91 19.7748 51.6085 19.2744 52.1937 18.6325C52.7793 17.9717 53.2322 17.207 53.5533 16.3385C53.893 15.4511 54.063 14.4882 54.063 13.4498C54.063 12.4114 53.893 11.4579 53.5533 10.5894C53.2322 9.70206 52.7793 8.93739 52.1937 8.29546C51.6085 7.63465 50.91 7.12487 50.0981 6.76617C49.3052 6.40743 48.427 6.22806 47.4644 6.22806C46.5015 6.22806 45.6141 6.40743 44.8022 6.76617C44.0093 7.12487 43.3107 7.62521 42.7063 8.26713C42.1211 8.90909 41.6681 9.67372 41.347 10.5611C41.0259 11.4296 40.8655 12.3925 40.8655 13.4498C40.8655 14.4882 41.0259 15.4511 41.347 16.3385C41.6681 17.2259 42.1211 17.9906 42.7063 18.6325C43.3107 19.2744 44.0093 19.7748 44.8022 20.1335C45.6141 20.4922 46.5015 20.6716 47.4644 20.6716Z" fill="black"/>
<path id="Vector_9" d="M0 7.95304C0 3.56069 3.51673 0 7.85485 0H21.7748C26.1129 0 29.6296 3.56069 29.6296 7.95304V22.047C29.6296 26.4393 26.1129 30 21.7748 30H7.85485C3.51673 30 0 26.4393 0 22.047V7.95304Z" fill="#FD641E"/>
<path id="Vector_10" d="M9.2488 14.5463H5.32806C5.39325 9.97207 9.35606 5.33789 14.9577 5.33789C20.566 5.33789 24.5236 9.98193 24.5861 14.5476H20.7213C20.0776 11.2779 18.2058 9.37641 14.7735 9.27637C13.831 9.24874 12.9385 9.55215 12.1171 10.0306C11.3069 10.5026 10.6481 11.1317 10.1386 11.9202C9.62395 12.7173 9.34555 13.5959 9.2488 14.5463Z" fill="white"/>
<path id="Vector_11" d="M5.32483 15.4543H9.21657C9.68716 18.4681 11.4372 20.2313 14.4905 20.7552V24.6134C10.2393 24.7049 5.46105 20.8197 5.32483 15.4543Z" fill="white"/>
<path id="Vector_12" d="M20.6956 24.6557C20.2086 21.6162 18.4552 19.8635 15.4185 19.3607V15.4709C20.1796 15.5401 24.4617 19.6668 24.5887 24.6557H20.6956Z" fill="white"/>
</g>
<defs>
<clipPath id="clip0_186_844">
<rect width="167.778" height="30" fill="white"/>
</clipPath>
</defs>
</svg>
