<svg width="34" height="30" viewBox="0 0 34 30" fill="none" xmlns="http://www.w3.org/2000/svg">
<mask id="mask0_1_21" style="mask-type:luminance" maskUnits="userSpaceOnUse" x="-3" y="0" width="37" height="30">
<path d="M34 0H-3V30H34V14V0Z" fill="white"/>
</mask>
<g mask="url(#mask0_1_21)">
<path d="M0 7.95304C0 3.56069 3.51673 0 7.85485 0H21.7748C26.1129 0 29.6296 3.56069 29.6296 7.95304V22.047C29.6296 26.4393 26.1129 30 21.7748 30H7.85485C3.51673 30 0 26.4393 0 22.047V7.95304Z" fill="#FD641E"/>
<path d="M9.2488 14.5463H5.32806C5.39325 9.97207 9.35606 5.33789 14.9577 5.33789C20.566 5.33789 24.5236 9.98193 24.5861 14.5476H20.7213C20.0776 11.2779 18.2058 9.37641 14.7735 9.27637C13.831 9.24874 12.9385 9.55215 12.1171 10.0306C11.3069 10.5026 10.6481 11.1317 10.1386 11.9202C9.62395 12.7173 9.34555 13.5959 9.2488 14.5463Z" fill="white"/>
<path d="M5.32483 15.4543H9.21657C9.68716 18.4681 11.4372 20.2313 14.4905 20.7552V24.6134C10.2393 24.7049 5.46105 20.8197 5.32483 15.4543Z" fill="white"/>
<path d="M20.6956 24.6557C20.2086 21.6162 18.4552 19.8635 15.4185 19.3607V15.4709C20.1796 15.5401 24.4617 19.6668 24.5887 24.6557H20.6956Z" fill="white"/>
</g>
</svg>
