<svg width="24" height="24" viewBox="0 0 24 24" fill="none" xmlns="http://www.w3.org/2000/svg">
<g id="StarHalf">
<path id="Vector" d="M22.4248 9.12093C22.334 8.84098 22.1628 8.59394 21.9326 8.41057C21.7024 8.2272 21.4233 8.1156 21.1302 8.08968L15.5623 7.60968L13.3798 2.41968C13.2662 2.14735 13.0745 1.91473 12.829 1.75111C12.5834 1.58749 12.2949 1.50018 11.9998 1.50018C11.7048 1.50018 11.4163 1.58749 11.1707 1.75111C10.9251 1.91473 10.7335 2.14735 10.6198 2.41968L8.4439 7.60968L2.86953 8.09156C2.57497 8.11611 2.29424 8.22714 2.06258 8.41071C1.83091 8.59427 1.65864 8.84219 1.5674 9.12333C1.47616 9.40447 1.47001 9.7063 1.54972 9.99092C1.62944 10.2755 1.79147 10.5303 2.01547 10.7231L6.24453 14.4187L4.97703 19.9069C4.91001 20.1941 4.92913 20.4947 5.03201 20.771C5.13489 21.0474 5.31696 21.2874 5.55546 21.4608C5.79396 21.6343 6.0783 21.7336 6.37294 21.7464C6.66758 21.7591 6.95944 21.6847 7.21203 21.5325L11.9933 18.6262L16.7848 21.5325C17.0374 21.6847 17.3293 21.7591 17.6239 21.7464C17.9186 21.7336 18.2029 21.6343 18.4414 21.4608C18.6799 21.2874 18.862 21.0474 18.9649 20.771C19.0677 20.4947 19.0869 20.1941 19.0198 19.9069L17.7533 14.4131L21.9814 10.7231C22.2051 10.5295 22.3665 10.2742 22.4454 9.98908C22.5243 9.704 22.5171 9.40196 22.4248 9.12093ZM20.998 9.58968L16.7698 13.2797C16.5641 13.4587 16.411 13.6904 16.3271 13.9499C16.2431 14.2094 16.2316 14.4869 16.2936 14.7525L17.5639 20.25L12.7761 17.3437C12.5425 17.2015 12.2743 17.1262 12.0008 17.1262V3.00843L14.1758 8.19093C14.2814 8.4428 14.4538 8.66104 14.6744 8.82213C14.8949 8.98321 15.1553 9.08102 15.4273 9.105L20.9998 9.58687V9.59343L20.998 9.58968Z" fill="#FFB800"/>
</g>
</svg>
